<svg version="1.1" viewBox="0.0 0.0 960.0 540.0" fill="none" stroke="none" stroke-linecap="square" stroke-miterlimit="10" xmlns:xlink="http://www.w3.org/1999/xlink" xmlns="http://www.w3.org/2000/svg"><clipPath id="g4d780d4c0c_0_58.0"><path d="m0 0l960.0 0l0 540.0l-960.0 0l0 -540.0z" clip-rule="nonzero"/></clipPath><g clip-path="url(#g4d780d4c0c_0_58.0)"><path fill="#ffffff" d="m0 0l960.0 0l0 540.0l-960.0 0z" fill-rule="evenodd"/><path fill="#000000" fill-opacity="0.0" d="m101.92126 -0.97637796l3.464569 541.95276" fill-rule="evenodd"/><path stroke="#003ed8" stroke-width="4.0" stroke-linejoin="round" stroke-linecap="butt" d="m101.92126 -0.97637796l3.464569 541.95276" fill-rule="evenodd"/><path fill="#003ed8" d="m89.1811 362.89108l0 0c0 -7.671112 6.479538 -13.8897705 14.472443 -13.8897705l0 0c3.8383331 0 7.519455 1.4633789 10.233566 4.068207c2.7141037 2.6048584 4.2388763 6.1377563 4.2388763 9.821564l0 0c0 7.671112 -6.4795303 13.8897705 -14.472443 13.8897705l0 0c-7.9929047 0 -14.472443 -6.2186584 -14.472443 -13.8897705z" fill-rule="evenodd"/><path stroke="#6ff4ba" stroke-width="1.0" stroke-linejoin="round" stroke-linecap="butt" d="m89.1811 362.89108l0 0c0 -7.671112 6.479538 -13.8897705 14.472443 -13.8897705l0 0c3.8383331 0 7.519455 1.4633789 10.233566 4.068207c2.7141037 2.6048584 4.2388763 6.1377563 4.2388763 9.821564l0 0c0 7.671112 -6.4795303 13.8897705 -14.472443 13.8897705l0 0c-7.9929047 0 -14.472443 -6.2186584 -14.472443 -13.8897705z" fill-rule="evenodd"/><path fill="#000000" fill-opacity="0.0" d="m0 93.80052l105.385826 0l0 53.826782l-105.385826 0z" fill-rule="evenodd"/><path fill="#eeeeee" d="m26.25 133.52052l-15.96875 0l0 -3.359375l5.734375 -5.796875q2.546875 -2.609375 3.328125 -3.609375q0.78125 -1.015625 1.125 -1.875q0.34375 -0.859375 0.34375 -1.78125q0 -1.375 -0.765625 -2.046875q-0.75 -0.671875 -2.015625 -0.671875q-1.328125 0 -2.578125 0.609375q-1.25 0.609375 -2.609375 1.734375l-2.625 -3.109375q1.6875 -1.4375 2.796875 -2.03125q1.109375 -0.59375 2.421875 -0.90625q1.3125 -0.328125 2.9375 -0.328125q2.140625 0 3.78125 0.78125q1.640625 0.78125 2.546875 2.1875q0.90625 1.40625 0.90625 3.21875q0 1.578125 -0.5625 2.96875q-0.546875 1.375 -1.71875 2.828125q-1.15625 1.453125 -4.09375 4.140625l-2.9375 2.765625l0 0.21875l9.953125 0l0 4.0625zm18.140625 -11.421875q0 5.984375 -1.96875 8.859375q-1.953125 2.875 -6.03125 2.875q-3.953125 0 -5.96875 -2.96875q-2.0 -2.96875 -2.0 -8.765625q0 -6.046875 1.953125 -8.90625q1.953125 -2.875 6.015625 -2.875q3.953125 0 5.96875 3.0q2.03125 3.0 2.03125 8.78125zm-11.171875 0q0 4.203125 0.71875 6.03125q0.734375 1.8125 2.453125 1.8125q1.6875 0 2.4375 -1.84375q0.75 -1.84375 0.75 -6.0q0 -4.203125 -0.765625 -6.03125q-0.75 -1.84375 -2.421875 -1.84375q-1.703125 0 -2.4375 1.84375q-0.734375 1.828125 -0.734375 6.03125zm25.53125 11.421875l-4.828125 0l0 -13.21875l0.046875 -2.171875l0.078125 -2.375q-1.203125 1.203125 -1.671875 1.578125l-2.625 2.109375l-2.328125 -2.90625l7.359375 -5.859375l3.96875 0l0 22.84375zm14.640625 -14.59375q3.3125 0 5.265625 1.859375q1.96875 1.859375 1.96875 5.09375q0 3.828125 -2.359375 5.890625q-2.359375 2.0625 -6.75 2.0625q-3.8125 0 -6.15625 -1.234375l0 -4.171875q1.234375 0.65625 2.875 1.078125q1.640625 0.40625 3.109375 0.40625q4.421875 0 4.421875 -3.625q0 -3.453125 -4.578125 -3.453125q-0.828125 0 -1.828125 0.171875q-1.0 0.15625 -1.625 0.34375l-1.921875 -1.03125l0.859375 -11.640625l12.390625 0l0 4.09375l-8.15625 0l-0.421875 4.484375l0.546875 -0.109375q0.953125 -0.21875 2.359375 -0.21875z" fill-rule="nonzero"/><path fill="#eeeeee" d="m9.0 135.60052l73.0625 0l0 2.880005l-73.0625 0l0 -2.880005z" fill-rule="nonzero"/><path fill="#f3faff" d="m200.33858 98.67191l0 0c0 -47.31094 38.353104 -85.66404 85.66405 -85.66404l38.4357 0l0 0l186.1496 0l348.68503 0c22.719543 0 44.508545 9.025292 60.57367 25.090416c16.065125 16.065125 25.090393 37.85411 25.090393 60.573624l0 214.16013l0 0l0 128.49606l0 0c0 47.310944 -38.35309 85.66403 -85.66406 85.66403l-348.68503 0l-186.1496 0l0 0l-38.4357 0c-47.310944 0 -85.66405 -38.35309 -85.66405 -85.66403l0 0l-82.21855 -74.23648l82.21855 -54.259583z" fill-rule="evenodd"/><path stroke="#003ed8" stroke-width="1.0" stroke-linejoin="round" stroke-linecap="butt" d="m200.33858 98.67191l0 0c0 -47.31094 38.353104 -85.66404 85.66405 -85.66404l38.4357 0l0 0l186.1496 0l348.68503 0c22.719543 0 44.508545 9.025292 60.57367 25.090416c16.065125 16.065125 25.090393 37.85411 25.090393 60.573624l0 214.16013l0 0l0 128.49606l0 0c0 47.310944 -38.35309 85.66403 -85.66406 85.66403l-348.68503 0l-186.1496 0l0 0l-38.4357 0c-47.310944 0 -85.66405 -38.35309 -85.66405 -85.66403l0 0l-82.21855 -74.23648l82.21855 -54.259583z" fill-rule="evenodd"/><path fill="#000000" fill-opacity="0.0" d="m0 170.01837l105.385826 0l0 53.826767l-105.385826 0z" fill-rule="evenodd"/><path fill="#eeeeee" d="m26.25 209.73837l-15.96875 0l0 -3.359375l5.734375 -5.796875q2.546875 -2.609375 3.328125 -3.609375q0.78125 -1.015625 1.125 -1.875q0.34375 -0.859375 0.34375 -1.78125q0 -1.375 -0.765625 -2.046875q-0.75 -0.671875 -2.015625 -0.671875q-1.328125 0 -2.578125 0.609375q-1.25 0.609375 -2.609375 1.734375l-2.625 -3.109375q1.6875 -1.4375 2.796875 -2.03125q1.109375 -0.59375 2.421875 -0.90625q1.3125 -0.328125 2.9375 -0.328125q2.140625 0 3.78125 0.78125q1.640625 0.78125 2.546875 2.1875q0.90625 1.40625 0.90625 3.21875q0 1.578125 -0.5625 2.96875q-0.546875 1.375 -1.71875 2.828125q-1.15625 1.453125 -4.09375 4.140625l-2.9375 2.765625l0 0.21875l9.953125 0l0 4.0625zm18.140625 -11.421875q0 5.984375 -1.96875 8.859375q-1.953125 2.875 -6.03125 2.875q-3.953125 0 -5.96875 -2.96875q-2.0 -2.96875 -2.0 -8.765625q0 -6.046875 1.953125 -8.90625q1.953125 -2.875 6.015625 -2.875q3.953125 0 5.96875 3.0q2.03125 3.0 2.03125 8.78125zm-11.171875 0q0 4.203125 0.71875 6.03125q0.734375 1.8125 2.453125 1.8125q1.6875 0 2.4375 -1.84375q0.75 -1.84375 0.75 -6.0q0 -4.203125 -0.765625 -6.03125q-0.75 -1.84375 -2.421875 -1.84375q-1.703125 0 -2.4375 1.84375q-0.734375 1.828125 -0.734375 6.03125zm25.53125 11.421875l-4.828125 0l0 -13.21875l0.046875 -2.171875l0.078125 -2.375q-1.203125 1.203125 -1.671875 1.578125l-2.625 2.109375l-2.328125 -2.90625l7.359375 -5.859375l3.96875 0l0 22.84375zm6.171875 -9.703125q0 -6.78125 2.859375 -10.09375q2.875 -3.3125 8.59375 -3.3125q1.953125 0 3.0625 0.234375l0 3.859375q-1.390625 -0.3125 -2.75 -0.3125q-2.484375 0 -4.0625 0.75q-1.5625 0.75 -2.34375 2.21875q-0.78125 1.46875 -0.921875 4.171875l0.203125 0q1.546875 -2.65625 4.953125 -2.65625q3.0625 0 4.796875 1.921875q1.734375 1.921875 1.734375 5.3125q0 3.65625 -2.0625 5.796875q-2.0625 2.125 -5.71875 2.125q-2.53125 0 -4.421875 -1.171875q-1.875 -1.171875 -2.90625 -3.421875q-1.015625 -2.25 -1.015625 -5.421875zm8.25 6.15625q1.546875 0 2.375 -1.03125q0.828125 -1.046875 0.828125 -2.96875q0 -1.671875 -0.78125 -2.625q-0.765625 -0.96875 -2.328125 -0.96875q-1.46875 0 -2.515625 0.953125q-1.03125 0.953125 -1.03125 2.21875q0 1.859375 0.96875 3.140625q0.984375 1.28125 2.484375 1.28125z" fill-rule="nonzero"/><path fill="#eeeeee" d="m9.0 211.81837l73.0625 0l0 2.880005l-73.0625 0l0 -2.880005z" fill-rule="nonzero"/><path fill="#000000" fill-opacity="0.0" d="m0 252.60104l105.385826 0l0 53.826782l-105.385826 0z" fill-rule="evenodd"/><path fill="#eeeeee" d="m26.25 292.32104l-15.96875 0l0 -3.359375l5.734375 -5.796875q2.546875 -2.609375 3.328125 -3.609375q0.78125 -1.015625 1.125 -1.875q0.34375 -0.859375 0.34375 -1.78125q0 -1.375 -0.765625 -2.046875q-0.75 -0.671875 -2.015625 -0.671875q-1.328125 0 -2.578125 0.609375q-1.25 0.609375 -2.609375 1.734375l-2.625 -3.109375q1.6875 -1.4375 2.796875 -2.03125q1.109375 -0.59375 2.421875 -0.90625q1.3125 -0.328125 2.9375 -0.328125q2.140625 0 3.78125 0.78125q1.640625 0.78125 2.546875 2.1875q0.90625 1.40625 0.90625 3.21875q0 1.578125 -0.5625 2.96875q-0.546875 1.375 -1.71875 2.828125q-1.15625 1.453125 -4.09375 4.140625l-2.9375 2.765625l0 0.21875l9.953125 0l0 4.0625zm18.140625 -11.421875q0 5.984375 -1.96875 8.859375q-1.953125 2.875 -6.03125 2.875q-3.953125 0 -5.96875 -2.96875q-2.0 -2.96875 -2.0 -8.765625q0 -6.046875 1.953125 -8.90625q1.953125 -2.875 6.015625 -2.875q3.953125 0 5.96875 3.0q2.03125 3.0 2.03125 8.78125zm-11.171875 0q0 4.203125 0.71875 6.03125q0.734375 1.8125 2.453125 1.8125q1.6875 0 2.4375 -1.84375q0.75 -1.84375 0.75 -6.0q0 -4.203125 -0.765625 -6.03125q-0.75 -1.84375 -2.421875 -1.84375q-1.703125 0 -2.4375 1.84375q-0.734375 1.828125 -0.734375 6.03125zm25.53125 11.421875l-4.828125 0l0 -13.21875l0.046875 -2.171875l0.078125 -2.375q-1.203125 1.203125 -1.671875 1.578125l-2.625 2.109375l-2.328125 -2.90625l7.359375 -5.859375l3.96875 0l0 22.84375zm8.59375 0l8.578125 -18.75l-11.265625 0l0 -4.0625l16.390625 0l0 3.03125l-8.640625 19.78125l-5.0625 0z" fill-rule="nonzero"/><path fill="#eeeeee" d="m9.0 294.40106l73.0625 0l0 2.8799744l-73.0625 0l0 -2.8799744z" fill-rule="nonzero"/><path fill="#000000" fill-opacity="0.0" d="m0 329.40158l105.385826 0l0 53.82675l-105.385826 0z" fill-rule="evenodd"/><path fill="#6ff4ba" d="m26.25 369.12158l-15.96875 0l0 -3.359375l5.734375 -5.796875q2.546875 -2.609375 3.328125 -3.609375q0.78125 -1.015625 1.125 -1.875q0.34375 -0.859375 0.34375 -1.78125q0 -1.375 -0.765625 -2.046875q-0.75 -0.671875 -2.015625 -0.671875q-1.328125 0 -2.578125 0.609375q-1.25 0.609375 -2.609375 1.734375l-2.625 -3.109375q1.6875 -1.4375 2.796875 -2.03125q1.109375 -0.59375 2.421875 -0.90625q1.3125 -0.328125 2.9375 -0.328125q2.140625 0 3.78125 0.78125q1.640625 0.78125 2.546875 2.1875q0.90625 1.40625 0.90625 3.21875q0 1.578125 -0.5625 2.96875q-0.546875 1.375 -1.71875 2.828125q-1.15625 1.453125 -4.09375 4.140625l-2.9375 2.765625l0 0.21875l9.953125 0l0 4.0625zm18.140625 -11.421875q0 5.984375 -1.96875 8.859375q-1.953125 2.875 -6.03125 2.875q-3.953125 0 -5.96875 -2.96875q-2.0 -2.96875 -2.0 -8.765625q0 -6.046875 1.953125 -8.90625q1.953125 -2.875 6.015625 -2.875q3.953125 0 5.96875 3.0q2.03125 3.0 2.03125 8.78125zm-11.171875 0q0 4.203125 0.71875 6.03125q0.734375 1.8125 2.453125 1.8125q1.6875 0 2.4375 -1.84375q0.75 -1.84375 0.75 -6.0q0 -4.203125 -0.765625 -6.03125q-0.75 -1.84375 -2.421875 -1.84375q-1.703125 0 -2.4375 1.84375q-0.734375 1.828125 -0.734375 6.03125zm25.53125 11.421875l-4.828125 0l0 -13.21875l0.046875 -2.171875l0.078125 -2.375q-1.203125 1.203125 -1.671875 1.578125l-2.625 2.109375l-2.328125 -2.90625l7.359375 -5.859375l3.96875 0l0 22.84375zm14.203125 -23.140625q3.28125 0 5.28125 1.5q2.015625 1.484375 2.015625 4.015625q0 1.75 -0.96875 3.125q-0.96875 1.359375 -3.125 2.4375q2.5625 1.375 3.671875 2.875q1.125 1.484375 1.125 3.265625q0 2.8125 -2.203125 4.53125q-2.203125 1.703125 -5.796875 1.703125q-3.75 0 -5.890625 -1.59375q-2.140625 -1.59375 -2.140625 -4.515625q0 -1.953125 1.03125 -3.46875q1.046875 -1.515625 3.34375 -2.671875q-1.953125 -1.234375 -2.8125 -2.640625q-0.859375 -1.40625 -0.859375 -3.078125q0 -2.453125 2.03125 -3.96875q2.03125 -1.515625 5.296875 -1.515625zm-3.5625 17.0625q0 1.34375 0.9375 2.09375q0.9375 0.75 2.5625 0.75q1.796875 0 2.6875 -0.765625q0.890625 -0.78125 0.890625 -2.046875q0 -1.046875 -0.890625 -1.953125q-0.875 -0.921875 -2.859375 -1.953125q-3.328125 1.53125 -3.328125 3.875zm3.53125 -13.53125q-1.234375 0 -2.0 0.640625q-0.75 0.625 -0.75 1.6875q0 0.9375 0.59375 1.6875q0.609375 0.734375 2.1875 1.515625q1.53125 -0.71875 2.140625 -1.46875q0.609375 -0.75 0.609375 -1.734375q0 -1.078125 -0.78125 -1.703125q-0.78125 -0.625 -2.0 -0.625z" fill-rule="nonzero"/><path fill="#6ff4ba" d="m9.0 371.20157l73.0625 0l0 2.880005l-73.0625 0l0 -2.880005z" fill-rule="nonzero"/><path fill="#000000" fill-opacity="0.0" d="m201.29134 223.92389l0 111.18109" fill-rule="evenodd"/><path stroke="#f3faff" stroke-width="1.0" stroke-linejoin="round" stroke-linecap="butt" stroke-dasharray="1.0,3.0" d="m201.29134 223.92389l0 111.18109" fill-rule="evenodd"/></g></svg>